<svg
   xmlns:dc="http://purl.org/dc/elements/1.1/"
   xmlns:cc="http://creativecommons.org/ns#"
   xmlns:rdf="http://www.w3.org/1999/02/22-rdf-syntax-ns#"
   xmlns:svg="http://www.w3.org/2000/svg"
   xmlns="http://www.w3.org/2000/svg"
   xmlns:sodipodi="http://sodipodi.sourceforge.net/DTD/sodipodi-0.dtd"
   xmlns:inkscape="http://www.inkscape.org/namespaces/inkscape"
   version="1.1"
   id="Layer_1"
   x="0px"
   y="0px"
   width="24"
   height="24"
   viewBox="0 0 24 24"
   xml:space="preserve"
   sodipodi:docname="rpubs.svg"
   inkscape:version="0.92.4 5da689c313, 2019-01-14"><metadata
   id="metadata57"><rdf:RDF><cc:Work
       rdf:about=""><dc:format>image/svg+xml</dc:format><dc:type
         rdf:resource="http://purl.org/dc/dcmitype/StillImage" /><dc:title></dc:title></cc:Work></rdf:RDF></metadata><defs
   id="defs55" /><sodipodi:namedview
   pagecolor="#ffffff"
   bordercolor="#666666"
   borderopacity="1"
   objecttolerance="10"
   gridtolerance="10"
   guidetolerance="10"
   inkscape:pageopacity="0"
   inkscape:pageshadow="2"
   inkscape:window-width="1322"
   inkscape:window-height="738"
   id="namedview53"
   showgrid="false"
   inkscape:zoom="10.104747"
   inkscape:cx="12"
   inkscape:cy="12"
   inkscape:window-x="36"
   inkscape:window-y="0"
   inkscape:window-maximized="1"
   inkscape:current-layer="Layer_1" />
<style
   type="text/css"
   id="style2">
	.st0{fill:#555555;}
	.st1{fill:#FAA41C;}
	.st2{fill:#FFFFFF;}
</style>

<path
   class="st1"
   d="m 20.474505,20.820626 c -0.697167,-0.08996 -1.124462,-0.33734 -1.326866,-1.056995 -0.629698,-2.338885 -0.629698,-4.85768 -2.0915,-6.9042 0.06747,-0.08996 0.08996,-0.134935 0.134936,-0.157425 0.247382,-0.134935 0.539742,-0.26987 0.787124,-0.427295 2.158967,-1.169445 3.440855,-2.901115 3.665747,-5.41991 0.314849,-3.30592 -1.259398,-5.71227 -4.565317,-5.95964999 -3.823172,-0.269875 -7.6913228,-0.157425 -11.5369844,-0.202405 -0.2024035,0 -0.4722735,0.202405 -0.5397415,0.35982999 -0.472274,1.236905 -0.2473815,1.6642 1.0345045,1.911585 0.067468,0.0225 0.1124465,0.0225 0.179914,0.0225 0.6746775,0.045 0.89957,0.359825 0.787124,1.10197 -0.7646345,5.217505 -1.461801,10.4575 -2.2039455,15.67501 -0.089957,0.60721 -0.3148495,1.10197 -1.079484,1.056995 -0.29236,0 -0.5847205,0.134935 -0.8770805,0.134935 -0.5622315,-0.0225 -0.809613,0.24738 -0.787124,0.78712 0,0.224895 0,0.449785 -0.067468,0.65219 -0.2923605,0.764635 0.112446,0.87708 0.7646345,0.87708 2.203946,0 4.362913,0.0225 6.5668596,0 2.1589683,-0.0225 1.7991403,0.35983 2.1589683,-1.934075 0,-0.045 -0.02249,-0.112445 -0.06747,-0.26987 -0.517253,-0.08996 -1.034506,-0.112445 -1.5517583,-0.24738 -0.2473815,-0.11245 -0.629699,-0.472275 -0.5847205,-0.69717 0.2024035,-1.844115 0.4722745,-3.710725 0.7646348,-5.554845 0.02249,-0.2024 0.29236,-0.472275 0.472274,-0.53974 1.79914,-0.427295 2.563774,0.157425 2.946092,1.956565 0.449785,2.158965 0.967037,4.317935 1.439311,6.52188 0.08996,0.472275 0.292361,0.787125 0.854591,0.787125 1.709183,-0.0225 3.440855,0 5.150039,-0.0225 0.224892,0 0.58472,-0.22489 0.674677,-0.427295 0.607209,-1.371845 0.337337,-1.86661 -1.101973,-2.02403 z M 16.538887,8.249136 c -0.427296,1.37184 -1.461801,2.04652 -2.766177,2.38386 -0.629699,0.134935 -1.304377,0.157425 -1.934076,0.24738 -1.326866,-0.045 -1.371844,-0.08995 -1.236909,-1.326865 0.202404,-1.59674 0.449785,-3.170985 0.652189,-4.76772 0.08996,-0.67468 0.404806,-0.98953 1.079484,-0.92206 0.742145,0.045 1.461801,0.045 2.203946,0.2024 1.911586,0.35983 2.67622,2.001545 2.001543,4.183005 z"
   id="path6"
   inkscape:connector-curvature="0"
   style="fill:#ffffff;stroke-width:0.22489248" />





</svg>
